<?xml version="1.0" encoding="UTF-8" standalone="no"?>
<!-- Created with Inkscape (http://www.inkscape.org/) -->

<svg
   width="14.380754cm"
   height="5.1991334cm"
   viewBox="0 0 143.80754 51.991331"
   version="1.1"
   id="svg6866"
   inkscape:version="1.1 (c4e8f9ed74, 2021-05-24)"
   sodipodi:docname="logo_wide.svg"
   xmlns:inkscape="http://www.inkscape.org/namespaces/inkscape"
   xmlns:sodipodi="http://sodipodi.sourceforge.net/DTD/sodipodi-0.dtd"
   xmlns="http://www.w3.org/2000/svg"
   xmlns:svg="http://www.w3.org/2000/svg"
   xmlns:rdf="http://www.w3.org/1999/02/22-rdf-syntax-ns#"
   xmlns:cc="http://creativecommons.org/ns#"
   xmlns:dc="http://purl.org/dc/elements/1.1/">
  <defs
     id="defs6860">
    <clipPath
       clipPathUnits="userSpaceOnUse"
       id="clipPath6751">
      <circle
         style="opacity:1;fill:none;fill-opacity:1;stroke:#190119;stroke-width:1.30189;stroke-linecap:round;stroke-linejoin:bevel;stroke-miterlimit:4;stroke-dasharray:none;stroke-dashoffset:0;stroke-opacity:1;paint-order:normal"
         id="circle6753"
         cx="141.62224"
         cy="124.8008"
         r="20.462521" />
    </clipPath>
  </defs>
  <sodipodi:namedview
     id="base"
     pagecolor="#ffffff"
     bordercolor="#666666"
     borderopacity="1.0"
     inkscape:pageopacity="0.0"
     inkscape:pageshadow="2"
     inkscape:zoom="1.4"
     inkscape:cx="138.21429"
     inkscape:cy="237.14286"
     inkscape:document-units="mm"
     inkscape:current-layer="layer1"
     showgrid="false"
     inkscape:window-width="3840"
     inkscape:window-height="2083"
     inkscape:window-x="0"
     inkscape:window-y="40"
     inkscape:window-maximized="1"
     units="cm"
     inkscape:pagecheckerboard="0"
     inkscape:showpageshadow="true"
     showborder="true"
     fit-margin-top="0.5"
     fit-margin-left="1"
     fit-margin-right="1"
     fit-margin-bottom="0.5"
     lock-margins="false" />
  <metadata
     id="metadata6863">
    <rdf:RDF>
      <cc:Work
         rdf:about="">
        <dc:format>image/svg+xml</dc:format>
        <dc:type
           rdf:resource="http://purl.org/dc/dcmitype/StillImage" />
      </cc:Work>
    </rdf:RDF>
  </metadata>
  <g
     inkscape:label="Layer 1"
     inkscape:groupmode="layer"
     id="layer1"
     transform="translate(7.9391198,-247.94779)">
    <rect
       style="opacity:1;fill:#ffffff;stroke:none;stroke-width:0.126932"
       id="rect44"
       width="131.88435"
       height="51.869358"
       x="-4.9706874"
       y="248.01402"
       ry="25.200001" />
    <g
       id="g7453"
       transform="translate(-1.1339286,250.59822)">
      <g
         transform="translate(-35.596118,-125.27886)"
         id="g6838"
         style="display:inline">
        <g
           transform="translate(-81.264881,23.8125)"
           id="g6762">
          <g
             id="g6745"
             transform="translate(-0.40090429,0.26726953)"
             clip-path="url(#clipPath6751)">
            <rect
               y="95.903633"
               x="103.58041"
               height="61.043152"
               width="65.767853"
               id="rect6521"
               style="opacity:1;fill:none;fill-opacity:1;stroke:none;stroke-width:1.5;stroke-linecap:round;stroke-linejoin:bevel;stroke-miterlimit:4;stroke-dasharray:none;stroke-dashoffset:0;stroke-opacity:1;paint-order:normal" />
            <circle
               r="15.541726"
               cy="109.79806"
               cx="158.24185"
               id="path6519"
               style="opacity:1;fill:#ffa448;fill-opacity:1;stroke:none;stroke-width:0.1;stroke-linecap:round;stroke-linejoin:bevel;stroke-miterlimit:4;stroke-dasharray:none;stroke-dashoffset:0;stroke-opacity:1;paint-order:normal" />
            <path
               sodipodi:nodetypes="ccccccccc"
               inkscape:connector-curvature="0"
               id="path6511"
               d="m 141.28243,116.69435 c 0,0 0.10022,-7.98995 0.0334,-8.25722 0.0752,0.13363 2.55134,0.0472 2.55134,0.0472 0,0 1.17033,5.34643 1.73491,8.02403 m 0.86628,4.21545 4.20715,18.24709 2.26945,10.16219 -11.64293,2.02122 -0.053,-30.34542"
               style="opacity:1;fill:none;stroke:#190119;stroke-width:1.5;stroke-linecap:butt;stroke-linejoin:miter;stroke-miterlimit:4;stroke-dasharray:none;stroke-opacity:1" />
            <path
               sodipodi:nodetypes="ccccccc"
               inkscape:connector-curvature="0"
               id="path6513"
               d="m 143.02805,108.5123 c 1.1526,-0.0668 -4.34858,-0.004 -4.34858,-0.004 0,0 -1.14756,5.31432 -1.73725,7.96797 m -1.00226,4.42666 -4.27631,19.12648 -2.33861,10.50703 11.97701,0.61804"
               style="opacity:1;fill:none;stroke:#190119;stroke-width:1.5;stroke-linecap:butt;stroke-linejoin:miter;stroke-miterlimit:4;stroke-dasharray:none;stroke-opacity:1" />
            <path
               inkscape:connector-curvature="0"
               id="path6515"
               d="m 135.55171,122.375 5.81138,3.35454 7.08706,2.97656 -7.1343,3.59077 -8.55171,3.35454 8.50446,4.53572 10.72507,4.7247 -2.12611,4.58296 -13.74888,1.79539 -9.44941,-3.07106 3.96875,-3.63802 10.58333,-4.34673 8.69345,-4.53571 -8.6462,-3.54353 -7.1343,-3.68527 7.27604,-2.78757 5.66964,-3.1183"
               style="opacity:1;fill:none;stroke:#190119;stroke-width:1.5;stroke-linecap:butt;stroke-linejoin:bevel;stroke-miterlimit:4;stroke-dasharray:none;stroke-opacity:1" />
            <rect
               y="116.69449"
               x="133.95203"
               height="4.1146312"
               width="14.633148"
               id="rect6501"
               style="opacity:1;fill:#fbfbfb;fill-opacity:1;stroke:#190119;stroke-width:1.50792;stroke-linecap:round;stroke-linejoin:miter;stroke-miterlimit:4;stroke-dasharray:none;stroke-dashoffset:0;stroke-opacity:1;paint-order:normal" />
          </g>
        </g>
        <circle
           r="20.231068"
           cy="148.6241"
           cx="59.786594"
           id="path6764"
           style="opacity:1;fill:none;fill-opacity:0;stroke:#190119;stroke-width:1.5292;stroke-linecap:round;stroke-linejoin:bevel;stroke-miterlimit:4;stroke-dasharray:none;stroke-dashoffset:0;stroke-opacity:1;paint-order:normal" />
      </g>
    </g>
    <g
       aria-label="Refinery"
       id="text7441"
       style="font-size:10.5833px;line-height:1.25;letter-spacing:0px;word-spacing:0px;stroke-width:0.264583">
      <path
         d="m 49.131458,279.99109 v -13.5255 h 5.715 q 0.8763,0 1.6002,0.36195 0.7239,0.36195 1.2573,0.9906 0.55245,0.6096 0.8382,1.3716 0.3048,0.74295 0.3048,1.524 0,0.97155 -0.381,1.8288 -0.36195,0.85725 -1.04775,1.4478 -0.66675,0.59055 -1.58115,0.78105 l 3.3147,5.2197 h -1.50495 l -3.18135,-4.9911 h -4.0005 v 4.9911 z m 1.3335,-6.1722 h 4.4196 q 0.8001,0 1.39065,-0.43815 0.59055,-0.43815 0.9144,-1.143 0.32385,-0.7239 0.32385,-1.524 0,-0.81915 -0.381,-1.50495 -0.36195,-0.70485 -0.9906,-1.12395 -0.6096,-0.43815 -1.3716,-0.43815 h -4.3053 z"
         style="font-size:19.05px;font-family:Raleway;-inkscape-font-specification:Raleway"
         id="path5719" />
      <path
         d="m 65.277993,280.18159 q -1.0668,0 -1.9812,-0.40005 -0.9144,-0.4191 -1.58115,-1.12395 -0.66675,-0.7239 -1.04775,-1.65735 -0.36195,-0.93345 -0.36195,-2.00025 0,-1.39065 0.62865,-2.5527 0.6477,-1.16205 1.77165,-1.84785 1.12395,-0.70485 2.5527,-0.70485 1.46685,0 2.5527,0.70485 1.1049,0.70485 1.73355,1.8669 0.62865,1.143 0.62865,2.5146 0,0.1524 0,0.3048 0,0.13335 -0.01905,0.20955 h -8.4963 q 0.09525,1.0668 0.59055,1.905 0.51435,0.81915 1.31445,1.31445 0.81915,0.47625 1.77165,0.47625 0.97155,0 1.8288,-0.4953 0.8763,-0.4953 1.2192,-1.2954 l 1.12395,0.3048 q -0.3048,0.70485 -0.93345,1.27635 -0.62865,0.5715 -1.4859,0.89535 -0.8382,0.3048 -1.80975,0.3048 z m -3.6576,-5.61975 h 7.33425 q -0.0762,-1.08585 -0.59055,-1.905 -0.4953,-0.81915 -1.31445,-1.27635 -0.8001,-0.47625 -1.77165,-0.47625 -0.97155,0 -1.77165,0.47625 -0.8001,0.4572 -1.31445,1.2954 -0.4953,0.81915 -0.5715,1.88595 z"
         style="font-size:19.05px;font-family:Raleway;-inkscape-font-specification:Raleway"
         id="path5721" />
      <path
         d="m 72.541627,271.09474 h -1.3716 v -1.0287 h 1.3716 v -0.2667 q 0,-0.70485 0.20955,-1.39065 0.20955,-0.6858 0.62865,-1.2573 0.43815,-0.5715 1.08585,-0.9144 0.66675,-0.3429 1.58115,-0.3429 0.70485,0 1.2573,0.1524 0.5715,0.1524 0.9906,0.36195 0.4191,0.20955 0.62865,0.381 l -0.59055,0.93345 q -0.3048,-0.28575 -0.9144,-0.47625 -0.59055,-0.20955 -1.2954,-0.20955 -0.8001,0 -1.31445,0.4191 -0.4953,0.40005 -0.74295,1.0287 -0.2286,0.62865 -0.2286,1.27635 v 0.3048 h 4.97205 v 9.92505 h -1.2954 v -8.89635 h -3.67665 v 8.89635 h -1.2954 z"
         style="font-size:19.05px;font-family:Raleway;-inkscape-font-specification:Raleway"
         id="path5723" />
      <path
         d="m 90.010469,279.99109 h -1.2954 v -5.54355 q 0,-1.7526 -0.51435,-2.5527 -0.51435,-0.81915 -1.61925,-0.81915 -0.762,0 -1.50495,0.381 -0.742949,0.36195 -1.314449,1.00965 -0.55245,0.62865 -0.8001,1.4478 v 6.07695 h -1.2954 v -9.92505 h 1.1811 v 2.2479 q 0.40005,-0.7239 1.04775,-1.2573 0.647699,-0.55245 1.466849,-0.85725 0.81915,-0.3048 1.69545,-0.3048 0.81915,0 1.39065,0.3048 0.5715,0.3048 0.9144,0.8763 0.3429,0.55245 0.4953,1.35255 0.1524,0.78105 0.1524,1.7526 z"
         style="font-size:19.05px;font-family:Raleway;-inkscape-font-specification:Raleway"
         id="path5725" />
      <path
         d="m 97.058937,280.18159 q -1.0668,0 -1.9812,-0.40005 -0.9144,-0.4191 -1.58115,-1.12395 -0.66675,-0.7239 -1.04775,-1.65735 -0.36195,-0.93345 -0.36195,-2.00025 0,-1.39065 0.62865,-2.5527 0.6477,-1.16205 1.77165,-1.84785 1.12395,-0.70485 2.5527,-0.70485 1.46685,0 2.5527,0.70485 1.104903,0.70485 1.733553,1.8669 0.62865,1.143 0.62865,2.5146 0,0.1524 0,0.3048 0,0.13335 -0.0191,0.20955 h -8.496303 q 0.09525,1.0668 0.59055,1.905 0.51435,0.81915 1.31445,1.31445 0.81915,0.47625 1.77165,0.47625 0.97155,0 1.8288,-0.4953 0.8763,-0.4953 1.219203,-1.2954 l 1.12395,0.3048 q -0.3048,0.70485 -0.93345,1.27635 -0.628653,0.5715 -1.485903,0.89535 -0.8382,0.3048 -1.80975,0.3048 z m -3.6576,-5.61975 h 7.334253 q -0.0762,-1.08585 -0.59055,-1.905 -0.495303,-0.81915 -1.314453,-1.27635 -0.8001,-0.47625 -1.77165,-0.47625 -0.97155,0 -1.77165,0.47625 -0.8001,0.4572 -1.31445,1.2954 -0.4953,0.81915 -0.5715,1.88595 z"
         style="font-size:19.05px;font-family:Raleway;-inkscape-font-specification:Raleway"
         id="path5727" />
      <path
         d="m 108.90803,271.20904 q -1.2954,0.0381 -2.286,0.7239 -0.97155,0.6858 -1.3716,1.88595 v 6.1722 h -1.2954 v -9.92505 h 1.2192 v 2.38125 q 0.51435,-1.04775 1.35255,-1.69545 0.85725,-0.6477 1.80975,-0.7239 0.1905,-0.019 0.32385,-0.019 0.1524,0 0.24765,0.019 z"
         style="font-size:19.05px;font-family:Raleway;-inkscape-font-specification:Raleway"
         id="path5729" />
      <path
         d="m 111.21308,283.03909 q 0.2667,0.019 0.51435,0.019 0.24765,0.019 0.36195,-0.019 0.2286,-0.0381 0.43815,-0.2667 0.20955,-0.2286 0.4953,-0.8763 0.28575,-0.6477 0.8001,-1.905 l -4.32435,-9.92505 h 1.3716 l 3.63855,8.59155 3.3528,-8.59155 h 1.2954 l -5.1435,12.8016 q -0.13335,0.36195 -0.40005,0.66675 -0.2667,0.32385 -0.66675,0.4953 -0.381,0.1905 -0.9525,0.20955 -0.17145,0.019 -0.36195,0 -0.17145,0 -0.4191,-0.0381 z"
         style="font-size:19.05px;font-family:Raleway;-inkscape-font-specification:Raleway"
         id="path5731" />
    </g>
  </g>
</svg>
